<?xml version="1.0" encoding="utf-8"?>
<!-- Generator: Adobe Illustrator 26.3.1, SVG Export Plug-In . SVG Version: 6.00 Build 0)  -->
<svg version="1.1" id="Warstwa_1" xmlns="http://www.w3.org/2000/svg" xmlns:xlink="http://www.w3.org/1999/xlink" x="0px" y="0px"
	 viewBox="0 0 120 120" style="enable-background:new 0 0 120 120;" xml:space="preserve">
<g>
	<g>
		<path d="M99.7,49.2h-0.5c-1.7,0-3.2,0.5-4.5,1.4c-0.5-4.1-3.9-7.2-8.1-7.2H86c-1.7,0-3.3,0.5-4.6,1.4c-0.8-3.7-4.1-6.5-8-6.5h-0.5
			c-1.7,0-3.2,0.4-4.5,1.1V14.8c0-5.2-3.5-9.1-8.2-9.1h-0.5c-4.5,0-8.2,3.7-8.2,8.2l0,58.3l-2.8-7.5c-1.1-3.5-4.3-5.9-8-5.9
			c-0.8,0-1.6,0.1-2.4,0.4l-0.5,0.1c-0.1,0-0.1,0-0.2,0c-4.4,1.4-6.9,6.1-5.5,10.6l9.4,28.4C42,99.9,47.9,119,76,119
			c16.2,0,25.5-11.3,28.6-21c3.3-10.5,3.7-19,3.7-24.4c0-6.6-0.8-15.3-0.9-16.4C107.4,52.6,104.1,49.2,99.7,49.2z M101.1,96.9
			c-2.7,8.5-10.9,18.4-25.1,18.4c-26.2,0-30.7-17.3-30.9-18c0-0.1,0-0.1,0-0.2l-9.4-28.4c-0.8-2.5,0.6-5.1,3-5.9l0.5-0.1
			c0.1,0,0.1,0,0.2,0c0.5-0.1,0.9-0.2,1.4-0.2c2.1,0,3.9,1.4,4.6,3.4l6.4,17.4c0.3,0.8,1.2,1.3,2.1,1.2c0.9-0.2,1.5-0.9,1.5-1.8
			l0-68.7c0-2.5,2-4.5,4.5-4.5h0.5c2.6,0,4.5,2.2,4.5,5.4v31.5c0,0,0,0,0,0.1v11.7c0,1,0.8,1.8,1.8,1.8c1,0,1.8-0.8,1.8-1.8V46.5
			c0,0,0,0,0-0.1c0-3.7,2.4-4.5,4.5-4.5h0.5c2.5,0,4.5,2,4.5,4.5v4.9c0,0,0,0,0,0.1v9.7c0,1,0.8,1.8,1.8,1.8c1,0,1.8-0.8,1.8-1.8
			v-9.5c0,0,0,0,0-0.1c0-2.5,2-4.5,4.5-4.5h0.5c2.5,0,4.5,2,4.5,4.5v5.6c0,0,0,0.1,0,0.1V64c0,1,0.8,1.8,1.8,1.8
			c1,0,1.8-0.8,1.8-1.8v-6.5c0,0,0-0.1,0-0.1c0-2.5,2-4.5,4.5-4.5h0.5c2.6,0,4,2.3,4,4.5c0,0.1,0,0.1,0,0.2c0,0.1,0.9,9.4,0.9,16.1
			C104.6,78.8,104.3,86.9,101.1,96.9z"/>
		<path d="M112.6,14.2c0-0.5-0.2-1-0.6-1.4c0,0,0,0,0,0L99.1,1.5c-0.8-0.7-1.9-0.6-2.6,0.2c-0.7,0.8-0.6,1.9,0.2,2.6l9.2,8.1H79.4
			c-1,0-1.8,0.8-1.8,1.8c0,1,0.8,1.8,1.8,1.8h26.4l-9.2,8.1c-0.8,0.7-0.8,1.8-0.2,2.6c0.4,0.4,0.9,0.6,1.4,0.6
			c0.4,0,0.9-0.2,1.2-0.5L112,15.6c0,0,0,0,0,0C112.3,15.3,112.6,14.8,112.6,14.2z"/>
		<path d="M14.1,16.1h26.4c1,0,1.8-0.8,1.8-1.8c0-1-0.8-1.8-1.8-1.8H14.1l9.2-8.1c0.8-0.7,0.8-1.8,0.2-2.6c-0.7-0.8-1.8-0.8-2.6-0.2
			L8,12.9c0,0,0,0,0,0c-0.4,0.3-0.6,0.8-0.6,1.4c0,0.5,0.2,1,0.6,1.4c0,0,0,0,0,0l12.9,11.3c0.3,0.3,0.8,0.5,1.2,0.5
			c0.5,0,1-0.2,1.4-0.6c0.7-0.8,0.6-1.9-0.2-2.6L14.1,16.1z"/>
	</g>
</g>
</svg>
